<?xml version="1.0" encoding="UTF-8" standalone="no"?>
<svg
   xmlns:dc="http://purl.org/dc/elements/1.1/"
   xmlns:cc="http://creativecommons.org/ns#"
   xmlns:rdf="http://www.w3.org/1999/02/22-rdf-syntax-ns#"
   xmlns:svg="http://www.w3.org/2000/svg"
   xmlns="http://www.w3.org/2000/svg"
   xmlns:xlink="http://www.w3.org/1999/xlink"
   xmlns:sodipodi="http://sodipodi.sourceforge.net/DTD/sodipodi-0.dtd"
   xmlns:inkscape="http://www.inkscape.org/namespaces/inkscape"
   width="166.82278mm"
   height="219.94722mm"
   viewBox="0 0 166.82278 219.94722"
   version="1.1"
   id="svg8"
   sodipodi:docname="model.svg"
   inkscape:version="1.0.1 (1.0.1+r73)">
  <defs
     id="defs2">
    <marker
       style="overflow:visible"
       id="marker2148"
       refX="0"
       refY="0"
       orient="auto"
       inkscape:stockid="TriangleOutM"
       inkscape:isstock="true">
      <path
         transform="scale(0.4)"
         style="fill:#000000;fill-opacity:1;fill-rule:evenodd;stroke:#000000;stroke-width:1pt;stroke-opacity:1"
         d="M 5.77,0 -2.88,5 V -5 Z"
         id="path2146" />
    </marker>
    <marker
       style="overflow:visible"
       id="marker2052"
       refX="0"
       refY="0"
       orient="auto"
       inkscape:stockid="TriangleOutM"
       inkscape:isstock="true"
       inkscape:collect="always">
      <path
         transform="scale(0.4)"
         style="fill:#000000;fill-opacity:1;fill-rule:evenodd;stroke:#000000;stroke-width:1pt;stroke-opacity:1"
         d="M 5.77,0 -2.88,5 V -5 Z"
         id="path2050" />
    </marker>
    <marker
       style="overflow:visible"
       id="marker1958"
       refX="0"
       refY="0"
       orient="auto"
       inkscape:stockid="TriangleOutM"
       inkscape:isstock="true"
       inkscape:collect="always">
      <path
         transform="scale(0.4)"
         style="fill:#000000;fill-opacity:1;fill-rule:evenodd;stroke:#000000;stroke-width:1pt;stroke-opacity:1"
         d="M 5.77,0 -2.88,5 V -5 Z"
         id="path1956" />
    </marker>
    <marker
       style="overflow:visible"
       id="marker1872"
       refX="0"
       refY="0"
       orient="auto"
       inkscape:stockid="TriangleOutM"
       inkscape:isstock="true">
      <path
         transform="scale(0.4)"
         style="fill:#000000;fill-opacity:1;fill-rule:evenodd;stroke:#000000;stroke-width:1pt;stroke-opacity:1"
         d="M 5.77,0 -2.88,5 V -5 Z"
         id="path1870" />
    </marker>
    <marker
       style="overflow:visible"
       id="marker1770"
       refX="0"
       refY="0"
       orient="auto"
       inkscape:stockid="TriangleOutM"
       inkscape:isstock="true"
       inkscape:collect="always">
      <path
         transform="scale(0.4)"
         style="fill:#000000;fill-opacity:1;fill-rule:evenodd;stroke:#000000;stroke-width:1pt;stroke-opacity:1"
         d="M 5.77,0 -2.88,5 V -5 Z"
         id="path1768" />
    </marker>
    <marker
       style="overflow:visible"
       id="marker1706"
       refX="0"
       refY="0"
       orient="auto"
       inkscape:stockid="TriangleOutM"
       inkscape:isstock="true"
       inkscape:collect="always">
      <path
         transform="scale(0.4)"
         style="fill:#000000;fill-opacity:1;fill-rule:evenodd;stroke:#000000;stroke-width:1pt;stroke-opacity:1"
         d="M 5.77,0 -2.88,5 V -5 Z"
         id="path1704" />
    </marker>
    <marker
       style="overflow:visible"
       id="marker1644"
       refX="0"
       refY="0"
       orient="auto"
       inkscape:stockid="TriangleOutM"
       inkscape:isstock="true">
      <path
         transform="scale(0.4)"
         style="fill:#000000;fill-opacity:1;fill-rule:evenodd;stroke:#000000;stroke-width:1pt;stroke-opacity:1"
         d="M 5.77,0 -2.88,5 V -5 Z"
         id="path1642" />
    </marker>
    <marker
       style="overflow:visible"
       id="marker1550"
       refX="0"
       refY="0"
       orient="auto"
       inkscape:stockid="TriangleOutM"
       inkscape:isstock="true"
       inkscape:collect="always">
      <path
         transform="scale(0.4)"
         style="fill:#000000;fill-opacity:1;fill-rule:evenodd;stroke:#000000;stroke-width:1pt;stroke-opacity:1"
         d="M 5.77,0 -2.88,5 V -5 Z"
         id="path1548" />
    </marker>
    <marker
       style="overflow:visible"
       id="marker1400"
       refX="0"
       refY="0"
       orient="auto"
       inkscape:stockid="TriangleOutM"
       inkscape:isstock="true"
       inkscape:collect="always">
      <path
         transform="scale(0.4)"
         style="fill:#000000;fill-opacity:1;fill-rule:evenodd;stroke:#000000;stroke-width:1pt;stroke-opacity:1"
         d="M 5.77,0 -2.88,5 V -5 Z"
         id="path1398" />
    </marker>
    <marker
       style="overflow:visible"
       id="TriangleOutM"
       refX="0"
       refY="0"
       orient="auto"
       inkscape:stockid="TriangleOutM"
       inkscape:isstock="true"
       inkscape:collect="always">
      <path
         transform="scale(0.4)"
         style="fill:#000000;fill-opacity:1;fill-rule:evenodd;stroke:#000000;stroke-width:1pt;stroke-opacity:1"
         d="M 5.77,0 -2.88,5 V -5 Z"
         id="path1235" />
    </marker>
    <g
       id="g4995">
      <symbol
         overflow="visible"
         id="symbol2830">
        <path
           style="stroke:none"
           d=""
           id="path8675" />
      </symbol>
      <symbol
         overflow="visible"
         id="symbol3971">
        <path
           style="stroke:none"
           d="m 2.96875,-2.25 c 0.15625,0 0.34375,0 0.34375,-0.171875 C 3.3125,-2.5625 3.1875,-2.5625 3.015625,-2.5625 H 1.40625 c 0.234375,-0.84375 0.796875,-1.421875 1.703125,-1.421875 h 0.3125 c 0.171875,0 0.328125,0 0.328125,-0.171875 0,-0.140625 -0.125,-0.140625 -0.296875,-0.140625 H 3.09375 c -1.296875,0 -2.625,1 -2.625,2.515625 0,1.109375 0.75,1.890625 1.796875,1.890625 0.65625,0 1.296875,-0.40625 1.296875,-0.515625 0,-0.015625 0,-0.125 -0.09375,-0.125 -0.015625,0 -0.046875,0 -0.125,0.046875 -0.3125,0.203125 -0.6875,0.375 -1.046875,0.375 -0.578125,0 -1.078125,-0.421875 -1.078125,-1.296875 0,-0.34375 0.078125,-0.734375 0.109375,-0.84375 z m 0,0"
           id="path5313" />
      </symbol>
    </g>
    <g
       id="g8693">
      <symbol
         overflow="visible"
         id="symbol5403">
        <path
           style="stroke:none"
           d=""
           id="path5335" />
      </symbol>
      <symbol
         overflow="visible"
         id="symbol7703">
        <path
           style="stroke:none"
           d="M 3.328125,-3.015625 C 3.390625,-3.265625 3.625,-4.1875 4.3125,-4.1875 c 0.046875,0 0.296875,0 0.5,0.125 C 4.53125,-4 4.34375,-3.765625 4.34375,-3.515625 c 0,0.15625 0.109375,0.34375 0.375,0.34375 0.21875,0 0.53125,-0.171875 0.53125,-0.578125 0,-0.515625 -0.578125,-0.65625 -0.921875,-0.65625 -0.578125,0 -0.921875,0.53125 -1.046875,0.75 -0.25,-0.65625 -0.78125,-0.75 -1.078125,-0.75 -1.03125,0 -1.609375,1.28125 -1.609375,1.53125 0,0.109375 0.109375,0.109375 0.125,0.109375 0.078125,0 0.109375,-0.03125 0.125,-0.109375 0.34375,-1.0625 1,-1.3125 1.34375,-1.3125 0.1875,0 0.53125,0.09375 0.53125,0.671875 0,0.3125 -0.171875,0.96875 -0.53125,2.375 -0.15625,0.609375 -0.515625,1.03125 -0.953125,1.03125 -0.0625,0 -0.28125,0 -0.5,-0.125 0.25,-0.0625 0.46875,-0.265625 0.46875,-0.546875 0,-0.265625 -0.21875,-0.34375 -0.359375,-0.34375 -0.3125,0 -0.546875,0.25 -0.546875,0.578125 0,0.453125 0.484375,0.65625 0.921875,0.65625 0.671875,0 1.03125,-0.703125 1.046875,-0.75 0.125,0.359375 0.484375,0.75 1.078125,0.75 1.03125,0 1.59375,-1.28125 1.59375,-1.53125 0,-0.109375 -0.078125,-0.109375 -0.109375,-0.109375 -0.09375,0 -0.109375,0.046875 -0.140625,0.109375 -0.328125,1.078125 -1,1.3125 -1.3125,1.3125 -0.390625,0 -0.546875,-0.3125 -0.546875,-0.65625 0,-0.21875 0.046875,-0.4375 0.15625,-0.875 z m 0,0"
           id="path2600" />
      </symbol>
    </g>
    <g
       id="g5801">
      <symbol
         overflow="visible"
         id="symbol3517">
        <path
           style="stroke:none"
           d=""
           id="path8511" />
      </symbol>
      <symbol
         overflow="visible"
         id="symbol7611">
        <path
           style="stroke:none"
           d="m 2.234375,-4.296875 c 0,-0.015625 0,-0.109375 -0.125,-0.109375 -0.234375,0 -0.96875,0.078125 -1.21875,0.09375 -0.078125,0.015625 -0.1875,0.03125 -0.1875,0.203125 0,0.125 0.078125,0.125 0.234375,0.125 0.484375,0 0.5,0.0625 0.5,0.171875 0,0.0625 -0.125,0.53125 -0.1875,0.796875 L 0.640625,-0.5625 C 0.59375,-0.421875 0.53125,-0.140625 0.53125,-0.125 0.53125,-0.015625 0.625,0 0.6875,0 h 0.140625 c 0.703125,-0.125 1.78125,-0.515625 2.8125,-1.46875 1.3125,-1.21875 1.578125,-2.578125 1.578125,-2.671875 0,-0.171875 -0.109375,-0.265625 -0.28125,-0.265625 -0.078125,0 -0.3125,0.046875 -0.390625,0.328125 -0.640625,2.265625 -2.15625,3.375 -3.296875,3.75 z m 0,0"
           id="path5844" />
      </symbol>
    </g>
    <g
       id="g6606">
      <symbol
         overflow="visible"
         id="symbol9346">
        <path
           style="stroke:none"
           d=""
           id="path9415" />
      </symbol>
      <symbol
         overflow="visible"
         id="symbol5908">
        <path
           style="stroke:none"
           d="M 3.71875,-3.765625 C 3.53125,-4.140625 3.25,-4.40625 2.796875,-4.40625 c -1.15625,0 -2.390625,1.46875 -2.390625,2.921875 0,0.9375 0.546875,1.59375 1.3125,1.59375 0.203125,0 0.703125,-0.046875 1.296875,-0.75 0.078125,0.421875 0.4375,0.75 0.90625,0.75 0.359375,0 0.578125,-0.234375 0.75,-0.546875 0.15625,-0.359375 0.296875,-0.96875 0.296875,-0.984375 0,-0.109375 -0.09375,-0.109375 -0.125,-0.109375 -0.09375,0 -0.109375,0.046875 -0.140625,0.1875 -0.171875,0.640625 -0.34375,1.234375 -0.75,1.234375 -0.28125,0 -0.296875,-0.265625 -0.296875,-0.453125 0,-0.21875 0.015625,-0.3125 0.125,-0.75 C 3.890625,-1.71875 3.90625,-1.828125 4,-2.203125 L 4.359375,-3.59375 c 0.0625,-0.28125 0.0625,-0.296875 0.0625,-0.34375 0,-0.171875 -0.109375,-0.265625 -0.28125,-0.265625 -0.25,0 -0.390625,0.21875 -0.421875,0.4375 z M 3.078125,-1.1875 C 3.015625,-1 3.015625,-0.984375 2.875,-0.8125 2.4375,-0.265625 2.03125,-0.109375 1.75,-0.109375 c -0.5,0 -0.640625,-0.546875 -0.640625,-0.9375 0,-0.5 0.3125,-1.71875 0.546875,-2.1875 0.3125,-0.578125 0.75,-0.953125 1.15625,-0.953125 0.640625,0 0.78125,0.8125 0.78125,0.875 0,0.0625 -0.015625,0.125 -0.03125,0.171875 z m 0,0"
           id="path2240" />
      </symbol>
    </g>
    <g
       id="g7781">
      <symbol
         overflow="visible"
         id="symbol8964">
        <path
           style="stroke:none"
           d=""
           id="path3386" />
      </symbol>
      <symbol
         overflow="visible"
         id="symbol7388">
        <path
           style="stroke:none"
           d="M 3.890625,-3.734375 C 3.625,-3.71875 3.421875,-3.5 3.421875,-3.28125 c 0,0.140625 0.09375,0.296875 0.3125,0.296875 0.21875,0 0.453125,-0.171875 0.453125,-0.5625 C 4.1875,-4 3.765625,-4.40625 3,-4.40625 c -1.3125,0 -1.6875,1.015625 -1.6875,1.453125 0,0.78125 0.734375,0.921875 1.03125,0.984375 0.515625,0.109375 1.03125,0.21875 1.03125,0.765625 0,0.25 -0.21875,1.09375 -1.421875,1.09375 -0.140625,0 -0.90625,0 -1.140625,-0.53125 0.390625,0.046875 0.640625,-0.25 0.640625,-0.53125 0,-0.21875 -0.171875,-0.34375 -0.375,-0.34375 -0.265625,0 -0.5625,0.203125 -0.5625,0.65625 0,0.5625 0.578125,0.96875 1.421875,0.96875 1.625,0 2.015625,-1.203125 2.015625,-1.65625 0,-0.359375 -0.1875,-0.609375 -0.3125,-0.71875 -0.265625,-0.28125 -0.5625,-0.34375 -1,-0.421875 -0.359375,-0.078125 -0.75,-0.15625 -0.75,-0.609375 C 1.890625,-3.578125 2.125,-4.1875 3,-4.1875 c 0.25,0 0.75,0.078125 0.890625,0.453125 z m 0,0"
           id="path3501" />
      </symbol>
    </g>
    <filter
       inkscape:collect="always"
       style="color-interpolation-filters:sRGB"
       id="filter2704"
       x="-2.2670532e-07"
       width="1.0000005"
       y="-2.3672769e-07"
       height="1.0000005">
      <feGaussianBlur
         inkscape:collect="always"
         stdDeviation="4.7272797e-07"
         id="feGaussianBlur2706" />
    </filter>
    <filter
       inkscape:collect="always"
       style="color-interpolation-filters:sRGB"
       id="filter2708"
       x="-2.5111737e-07"
       width="1.0000005"
       y="-2.155532e-07"
       height="1.0000004">
      <feGaussianBlur
         inkscape:collect="always"
         stdDeviation="4.3044406e-07"
         id="feGaussianBlur2710" />
    </filter>
    <filter
       inkscape:collect="always"
       style="color-interpolation-filters:sRGB"
       id="filter2776"
       x="-0.1049032"
       width="1.2098064"
       y="-0.13291256"
       height="1.2658252">
      <feGaussianBlur
         inkscape:collect="always"
         stdDeviation="1.6608118"
         id="feGaussianBlur2778" />
    </filter>
  </defs>
  <sodipodi:namedview
     id="base"
     pagecolor="#ffffff"
     bordercolor="#666666"
     borderopacity="1.0"
     inkscape:pageopacity="0.0"
     inkscape:pageshadow="2"
     inkscape:zoom="0.46324355"
     inkscape:cx="-82.439393"
     inkscape:cy="293.79169"
     inkscape:document-units="mm"
     inkscape:current-layer="layer1"
     inkscape:document-rotation="0"
     showgrid="false"
     inkscape:window-width="1293"
     inkscape:window-height="713"
     inkscape:window-x="67"
     inkscape:window-y="27"
     inkscape:window-maximized="1"
     fit-margin-top="10"
     lock-margins="true"
     fit-margin-left="10"
     fit-margin-right="10"
     fit-margin-bottom="10" />
  <metadata
     id="metadata5">
    <rdf:RDF>
      <cc:Work
         rdf:about="">
        <dc:format>image/svg+xml</dc:format>
        <dc:type
           rdf:resource="http://purl.org/dc/dcmitype/StillImage" />
        <dc:title></dc:title>
      </cc:Work>
    </rdf:RDF>
  </metadata>
  <g
     inkscape:label="Layer 1"
     inkscape:groupmode="layer"
     id="layer1"
     transform="translate(-15.06133,-66.133254)">
    <rect
       style="fill:#f6f4ce;fill-opacity:1;stroke:#000300;stroke-width:2;stroke-miterlimit:4;stroke-dasharray:none;stroke-opacity:1;stop-color:#000000"
       id="rect2476"
       width="130.53749"
       height="79.473419"
       x="40.34663"
       y="87.741539"
       ry="10"
       rx="10" />
    <rect
       style="fill:#fffffc;stroke:none;stroke-width:2.18929;stroke-miterlimit:4;stroke-dasharray:none;stroke-opacity:1;filter:url(#filter2776);stop-color:#000000"
       id="rect2550"
       width="37.996441"
       height="29.989252"
       x="66.820328"
       y="149.14763"
       rx="11.982519"
       ry="10.000007"
       transform="matrix(0.83454959,0,0,1,11.055451,0)" />
    <g
       inkscape:label=""
       transform="matrix(3.1262816,0,0,3.1262816,-211.50197,-84.658193)"
       id="g855"
       style="stroke-width:0.319869">
      <g
         id="g9125"
         style="stroke-width:0.319869">
        <g
           style="fill:#000000;fill-opacity:1;stroke-width:0.319869"
           id="g9729">
          <use
             xlink:href="#symbol3971"
             x="91.483002"
             y="81.962997"
             id="use3749"
             width="100%"
             height="100%"
             style="stroke-width:0.319869" />
        </g>
        <g
           style="fill:#000000;fill-opacity:1;stroke-width:0.319869"
           id="g3156">
          <use
             xlink:href="#symbol3971"
             x="91.704002"
             y="81.685997"
             id="use797"
             width="100%"
             height="100%"
             style="stroke-width:0.319869" />
        </g>
        <g
           style="fill:#000000;fill-opacity:1;stroke-width:0.319869"
           id="g3236">
          <use
             xlink:href="#symbol3971"
             x="91.925003"
             y="81.962997"
             id="use4196"
             width="100%"
             height="100%"
             style="stroke-width:0.319869" />
        </g>
      </g>
    </g>
    <g
       inkscape:label=""
       transform="matrix(2.9152787,0,0,2.9152787,-193.64301,-119.92133)"
       id="g901"
       style="stroke-width:0.34302">
      <g
         id="g1511"
         style="stroke-width:0.34302">
        <g
           style="fill:#000000;fill-opacity:1;stroke-width:0.34302"
           id="g3068">
          <use
             xlink:href="#symbol7703"
             x="91.483002"
             y="81.962997"
             id="use1630"
             width="100%"
             height="100%"
             style="stroke-width:0.34302" />
        </g>
        <g
           style="fill:#000000;fill-opacity:1;stroke-width:0.34302"
           id="g4677">
          <use
             xlink:href="#symbol7703"
             x="91.704002"
             y="81.685997"
             id="use8922"
             width="100%"
             height="100%"
             style="stroke-width:0.34302" />
        </g>
        <g
           style="fill:#000000;fill-opacity:1;stroke-width:0.34302"
           id="g6485">
          <use
             xlink:href="#symbol7703"
             x="91.925003"
             y="81.962997"
             id="use9754"
             width="100%"
             height="100%"
             style="stroke-width:0.34302" />
        </g>
      </g>
    </g>
    <g
       inkscape:label=""
       transform="matrix(2.7787377,0,0,2.7787377,-115.00901,-108.89032)"
       id="g960"
       style="stroke-width:0.359876">
      <g
         id="g2720"
         style="stroke-width:0.359876">
        <g
           style="fill:#000000;fill-opacity:1;stroke-width:0.359876"
           id="g4086">
          <use
             xlink:href="#symbol7611"
             x="91.483002"
             y="81.962997"
             id="use2603"
             width="100%"
             height="100%"
             style="stroke-width:0.359876" />
        </g>
        <g
           style="fill:#000000;fill-opacity:1;stroke-width:0.359876"
           id="g1526">
          <use
             xlink:href="#symbol7611"
             x="91.704002"
             y="81.685997"
             id="use7441"
             width="100%"
             height="100%"
             style="stroke-width:0.359876" />
        </g>
        <g
           style="fill:#000000;fill-opacity:1;stroke-width:0.359876"
           id="g4729">
          <use
             xlink:href="#symbol7611"
             x="91.925003"
             y="81.962997"
             id="use6895"
             width="100%"
             height="100%"
             style="stroke-width:0.359876" />
        </g>
      </g>
    </g>
    <g
       inkscape:label=""
       transform="matrix(2.9152787,0,0,2.9152787,-193.64301,36.816634)"
       id="g991"
       style="stroke-width:0.34302">
      <g
         id="g989"
         style="stroke-width:0.34302">
        <g
           style="fill:#000000;fill-opacity:1;stroke-width:0.34302"
           id="g979">
          <use
             xlink:href="#symbol7703"
             x="91.483002"
             y="81.962997"
             id="use977"
             width="100%"
             height="100%"
             style="stroke-width:0.34302" />
        </g>
        <g
           style="fill:#000000;fill-opacity:1;stroke-width:0.34302"
           id="g983">
          <use
             xlink:href="#symbol7703"
             x="91.704002"
             y="81.685997"
             id="use981"
             width="100%"
             height="100%"
             style="stroke-width:0.34302" />
        </g>
        <g
           style="fill:#000000;fill-opacity:1;stroke-width:0.34302"
           id="g987">
          <use
             xlink:href="#symbol7703"
             x="91.925003"
             y="81.962997"
             id="use985"
             width="100%"
             height="100%"
             style="stroke-width:0.34302" />
        </g>
      </g>
    </g>
    <g
       inkscape:label=""
       transform="matrix(3.1331064,0,0,3.1331064,-147.93739,-33.522523)"
       id="g1071"
       style="stroke-width:0.319172;filter:url(#filter2704)">
      <g
         id="g1874"
         style="stroke-width:0.319172">
        <g
           style="fill:#000000;fill-opacity:1;stroke-width:0.319172"
           id="g2074">
          <use
             xlink:href="#symbol5908"
             x="91.483002"
             y="81.962997"
             id="use4063"
             width="100%"
             height="100%"
             style="stroke-width:0.319172" />
        </g>
        <g
           style="fill:#000000;fill-opacity:1;stroke-width:0.319172"
           id="g8283">
          <use
             xlink:href="#symbol5908"
             x="91.704002"
             y="81.685997"
             id="use6282"
             width="100%"
             height="100%"
             style="stroke-width:0.319172" />
        </g>
        <g
           style="fill:#000000;fill-opacity:1;stroke-width:0.319172"
           id="g4547">
          <use
             xlink:href="#symbol5908"
             x="91.925003"
             y="81.962997"
             id="use6412"
             width="100%"
             height="100%"
             style="stroke-width:0.319172" />
        </g>
      </g>
    </g>
    <path
       style="fill:none;stroke:#000000;stroke-width:2;stroke-linecap:butt;stroke-linejoin:miter;stroke-miterlimit:4;stroke-dasharray:none;stroke-opacity:1;marker-end:url(#TriangleOutM)"
       d="M 131.74892,112.35659 H 97.950862"
       id="path1088"
       sodipodi:nodetypes="cc" />
    <path
       style="fill:none;stroke:#000000;stroke-width:2;stroke-linecap:butt;stroke-linejoin:miter;stroke-miterlimit:4;stroke-dasharray:none;stroke-opacity:1;marker-end:url(#marker1400)"
       d="M 131.74892,112.88576 H 97.950862"
       id="path1396"
       sodipodi:nodetypes="cc" />
    <g
       inkscape:label=""
       transform="matrix(3.4408815,0,0,3.4408815,-241.84899,-57.307305)"
       id="g1523"
       style="stroke-width:0.290623;filter:url(#filter2708)">
      <g
         id="g9441"
         style="stroke-width:0.290623">
        <g
           style="fill:#000000;fill-opacity:1;stroke-width:0.290623"
           id="g1017">
          <use
             xlink:href="#symbol7388"
             x="91.483002"
             y="81.962997"
             id="use9735"
             width="100%"
             height="100%"
             style="stroke-width:0.290623" />
        </g>
        <g
           style="fill:#000000;fill-opacity:1;stroke-width:0.290623"
           id="g6057">
          <use
             xlink:href="#symbol7388"
             x="91.704002"
             y="81.685997"
             id="use5074"
             width="100%"
             height="100%"
             style="stroke-width:0.290623" />
        </g>
        <g
           style="fill:#000000;fill-opacity:1;stroke-width:0.290623"
           id="g9062">
          <use
             xlink:href="#symbol7388"
             x="91.925003"
             y="81.962997"
             id="use3260"
             width="100%"
             height="100%"
             style="stroke-width:0.290623" />
        </g>
      </g>
    </g>
    <path
       style="fill:none;stroke:#000000;stroke-width:2;stroke-linecap:butt;stroke-linejoin:miter;stroke-miterlimit:4;stroke-dasharray:none;stroke-opacity:1;marker-end:url(#marker1550)"
       d="m 81.827312,255.60074 -0.04941,-19.57917"
       id="path1546"
       sodipodi:nodetypes="cc" />
    <path
       style="fill:none;stroke:#000000;stroke-width:2;stroke-linecap:butt;stroke-linejoin:miter;stroke-miterlimit:4;stroke-dasharray:none;stroke-opacity:1;marker-end:url(#marker1706)"
       d="m 81.827312,203.35474 -0.04941,-19.57917"
       id="path1702"
       sodipodi:nodetypes="cc" />
    <path
       style="fill:none;stroke:#000000;stroke-width:2;stroke-linecap:butt;stroke-linejoin:miter;stroke-miterlimit:4;stroke-dasharray:none;stroke-opacity:1;marker-end:url(#marker1770)"
       d="m 81.827314,125.85041 -0.04941,19.57917"
       id="path1766"
       sodipodi:nodetypes="cc" />
    <path
       style="fill:none;stroke:#000000;stroke-width:2;stroke-linecap:butt;stroke-linejoin:miter;stroke-miterlimit:4;stroke-dasharray:none;stroke-opacity:1;marker-end:url(#marker1958)"
       d="m 97.950862,175.3278 33.798058,31.22082"
       id="path1954"
       sodipodi:nodetypes="cc" />
    <path
       style="fill:none;stroke:#000000;stroke-width:2;stroke-linecap:butt;stroke-linejoin:miter;stroke-miterlimit:4;stroke-dasharray:none;stroke-opacity:1;marker-end:url(#marker2052)"
       d="M 97.950862,153.63196 131.74892,125.99563"
       id="path2048"
       sodipodi:nodetypes="cc" />
    <path
       style="fill:none;stroke:#000000;stroke-width:2;stroke-linecap:butt;stroke-linejoin:miter;stroke-miterlimit:4;stroke-dasharray:none;stroke-opacity:1;marker-end:url(#marker2148)"
       d="M 131.74892,227.06651 97.950862,258.93617"
       id="path2144"
       sodipodi:nodetypes="cc" />
    <rect
       style="fill:#fffffc;stroke:none;stroke-width:1.99937;stroke-miterlimit:4;stroke-dasharray:none;stroke-opacity:1;filter:url(#filter2776);stop-color:#000000"
       id="rect2790"
       width="37.996441"
       height="29.989252"
       x="38.528149"
       y="75.064522"
       rx="5.5447292"
       ry="18.02389"
       transform="matrix(1.8035158,0,0,0.5548196,-37.236074,36.697468)" />
    <text
       xml:space="preserve"
       style="font-style:normal;font-weight:normal;font-size:14.1111px;line-height:1.25;font-family:sans-serif;letter-spacing:0px;word-spacing:0px;fill:#000000;fill-opacity:1;stroke:none;stroke-width:0.264583"
       x="40.491665"
       y="93.066681"
       id="text2788"><tspan
         sodipodi:role="line"
         id="tspan2786"
         x="40.491665"
         y="93.066681"
         style="font-style:normal;font-variant:normal;font-weight:bold;font-stretch:normal;font-size:14.1111px;font-family:sans-serif;-inkscape-font-specification:'sans-serif Bold';stroke-width:0.264583">Model</tspan></text>
  </g>
</svg>
